<?xml version="1.0" standalone="no"?>
<!DOCTYPE svg PUBLIC "-//W3C//DTD SVG 20010904//EN" "http://www.w3.org/TR/2001/REC-SVG-20010904/DTD/svg10.dtd">
<svg version="1.0" xmlns="http://www.w3.org/2000/svg" width="300.000000pt" height="300.000000pt"
    viewBox="0 0 300.000000 300.000000" preserveAspectRatio="xMidYMid meet">
    <metadata>
        Created by potrace 1.10, written by Peter Selinger 2001-2011
    </metadata>
    <g transform="translate(0.000000,300.000000) scale(0.100000,-0.100000)" fill="#FFFFFF" stroke="none">
        <path d="M1350 2847 c0 -2 13 -30 29 -63 30 -62 55 -177 47 -216 -3 -13 -8
-41 -11 -63 -8 -54 -36 -109 -58 -113 -10 -2 -27 4 -37 13 -19 17 -19 15 -22
-66 -4 -107 -21 -116 -69 -35 -35 58 -53 72 -44 34 9 -41 35 -217 35 -238 0
-56 -62 -24 -82 42 -6 21 -13 38 -15 38 -2 0 -14 -7 -27 -15 -21 -14 -25 -14
-44 2 -20 18 -179 206 -207 246 -30 43 -23 8 10 -55 42 -78 63 -143 71 -215 5
-50 4 -53 -16 -53 -18 0 -21 -4 -16 -22 4 -13 9 -55 13 -93 5 -58 3 -73 -11
-84 -15 -12 -21 -11 -46 8 -36 26 -38 20 -6 -22 61 -82 114 -223 96 -257 -22
-41 -53 -25 -145 78 -90 99 -114 120 -100 86 4 -11 12 -36 17 -57 11 -41 -1
-67 -31 -67 -19 0 -64 45 -74 73 -8 22 -27 13 -27 -13 0 -31 -29 -39 -105 -30
-101 11 -149 26 -243 76 -95 50 -134 58 -76 15 86 -64 164 -171 164 -226 0
-17 10 -35 25 -47 30 -24 32 -44 5 -53 -28 -9 -25 -18 16 -40 49 -26 74 -49
74 -69 0 -9 -7 -16 -15 -16 -26 0 -17 -16 26 -45 64 -45 75 -77 31 -93 -48
-18 -95 -22 -156 -12 -33 5 -61 8 -63 6 -2 -2 53 -41 122 -87 94 -62 125 -88
121 -101 -4 -18 15 -41 30 -36 17 4 82 -23 99 -42 37 -41 0 -74 -122 -109 -37
-11 -81 -22 -97 -26 -15 -3 -27 -8 -24 -10 2 -2 78 -9 168 -16 100 -7 176 -17
192 -25 36 -18 36 -49 3 -99 -31 -45 -26 -54 12 -27 51 35 150 83 187 89 33 5
36 4 36 -18 -1 -31 -35 -108 -62 -136 -42 -45 -10 -42 42 5 73 64 125 95 148
88 14 -5 36 10 81 54 97 93 146 124 217 134 29 4 14 22 -47 54 -34 18 -132 81
-218 139 -85 59 -160 106 -166 105 -5 -1 -26 -5 -45 -10 l-35 -10 39 -1 c27
-1 53 -11 87 -36 27 -19 57 -35 67 -35 14 0 15 -2 2 -10 -8 -5 -10 -10 -5 -10
18 0 240 -151 240 -163 0 -6 -13 -18 -30 -26 -16 -8 -49 -32 -72 -54 -86 -81
-105 -95 -131 -100 -15 -3 -39 -9 -53 -12 -23 -6 -27 -3 -32 24 -4 19 -16 35
-35 45 -26 13 -33 13 -88 -10 -73 -30 -72 -30 -84 0 -13 36 -54 58 -123 68
-34 5 -65 12 -70 17 -5 5 5 18 21 30 37 26 47 62 28 100 -14 25 -68 61 -94 61
-6 0 -21 12 -34 28 -12 15 -47 47 -76 71 -54 46 -55 61 -4 61 13 0 36 13 52
28 34 35 31 68 -11 108 -19 18 -29 38 -29 56 0 20 -12 40 -40 67 -25 24 -40
48 -40 63 0 13 -6 32 -13 43 -15 23 -52 115 -52 131 0 6 -7 19 -14 28 -13 15
-12 16 10 8 13 -5 63 -15 111 -22 69 -10 96 -11 128 -1 36 11 43 10 76 -12 19
-14 43 -23 52 -20 27 7 49 27 53 48 3 16 15 9 66 -43 64 -64 98 -77 134 -49
46 35 44 94 -9 211 -25 57 -25 60 -9 88 12 21 17 53 17 113 0 51 4 87 11 91 8
4 9 27 5 66 -5 54 -4 58 12 49 9 -5 30 -23 46 -40 17 -17 40 -31 52 -31 14 0
40 -17 63 -40 42 -43 79 -52 102 -24 15 19 18 87 5 123 -6 16 -5 21 3 17 6 -4
11 -2 11 3 0 6 8 11 18 11 37 0 67 49 71 117 1 7 13 18 28 25 35 17 71 70 79
117 10 65 14 68 34 26 11 -22 19 -43 20 -48 1 -25 56 -88 84 -95 29 -8 31 -11
36 -65 5 -54 31 -97 60 -97 5 0 10 -5 10 -12 0 -6 7 -3 16 8 15 18 15 18 9 -6
-4 -14 -9 -47 -12 -75 -9 -92 54 -134 125 -81 19 13 41 22 55 19 14 -3 49 12
97 41 83 51 95 55 81 27 -20 -37 -30 -103 -19 -127 9 -19 6 -35 -16 -82 -27
-63 -33 -97 -16 -107 24 -15 8 -52 -44 -103 -52 -51 -86 -104 -86 -134 0 -8
11 -25 24 -37 31 -29 80 -24 136 13 48 31 53 32 90 5 34 -26 66 -21 123 18
l37 26 23 -20 c35 -32 43 -34 93 -23 37 9 182 15 236 11 7 -1 -55 -93 -91
-137 -19 -24 -31 -54 -31 -81 0 -22 -8 -33 -32 -48 -42 -25 -61 -43 -83 -82
-16 -28 -17 -35 -5 -57 7 -14 28 -30 47 -37 18 -6 33 -13 33 -15 0 -17 -35
-35 -77 -40 -60 -8 -91 -27 -108 -67 -7 -18 -25 -43 -39 -56 -33 -31 -33 -58
0 -92 30 -31 32 -29 -68 -49 -55 -11 -70 -21 -103 -74 -9 -13 -16 -14 -67 -2
-32 8 -68 12 -80 9 -34 -8 -68 -43 -68 -70 0 -13 -4 -23 -9 -23 -30 0 -121 56
-194 119 -95 83 -95 80 -7 128 29 15 63 38 76 49 12 12 25 20 27 17 3 -2 16 6
29 19 51 48 66 54 140 57 95 3 102 11 10 11 -38 0 -72 5 -74 10 -2 6 -59 -28
-127 -75 -117 -80 -207 -125 -251 -125 -33 0 -22 -18 18 -30 53 -17 108 -55
179 -123 35 -33 71 -60 80 -61 29 -3 136 -62 162 -90 40 -42 44 -30 11 32 -17
32 -32 71 -33 88 -2 27 1 29 35 32 20 2 68 -6 105 -16 37 -11 86 -23 108 -26
l40 -7 -37 36 c-21 19 -38 42 -38 50 0 26 78 40 275 49 61 3 112 6 115 6 15 2
-38 22 -135 50 -60 17 -114 36 -120 42 -12 11 47 68 70 68 18 0 19 12 3 28
-14 14 6 42 32 42 25 0 192 55 232 77 l33 17 -45 7 c-71 11 -160 39 -160 51 0
28 56 80 117 110 64 31 66 32 40 41 -34 11 -35 39 -2 75 14 15 32 41 40 59 31
64 157 152 243 169 31 6 49 20 40 30 -3 2 -25 -3 -49 -11 -71 -26 -135 -36
-289 -47 -240 -16 -225 -17 -228 15 -2 16 2 35 9 43 27 32 -4 25 -48 -12 -79
-65 -112 -86 -135 -82 -32 4 -34 33 -3 64 14 14 24 28 22 31 -6 6 -67 -26
-136 -71 -60 -39 -108 -53 -123 -38 -20 20 11 68 107 169 52 54 92 99 91 101
-2 1 -15 -3 -29 -9 -30 -14 -57 -6 -57 16 0 8 18 51 39 96 22 44 34 78 26 76
-62 -24 -9 129 90 261 26 35 45 65 43 67 -2 3 -29 -19 -59 -48 -31 -28 -106
-86 -168 -127 l-113 -74 -21 24 c-13 17 -21 21 -24 12 -3 -7 -16 -26 -30 -42
-49 -59 -93 -25 -74 58 11 54 22 162 15 162 -2 0 -17 -15 -34 -32 -24 -28 -32
-31 -47 -22 -15 10 -18 24 -16 103 2 94 -8 114 -35 71 -16 -27 -48 -25 -63 2
-17 31 -79 191 -79 202 0 18 -112 236 -121 236 -5 0 -9 -2 -9 -3z" />
        <path d="M1492 1940 l-2 -165 21 30 c11 17 27 44 36 60 15 28 15 29 0 17 -9
-8 -19 -22 -22 -33 -16 -48 -25 -8 -28 119 l-3 137 -2 -165z" />
        <path d="M1446 1883 c-4 -87 -9 -252 -12 -368 -4 -140 -10 -212 -18 -217 -6
-4 -13 -2 -15 4 -2 6 -11 18 -20 28 -43 48 -65 78 -77 107 -8 17 -25 49 -40
70 -14 21 -38 65 -53 98 -15 33 -43 93 -61 133 -18 40 -35 71 -37 68 -6 -6 54
-152 106 -258 75 -150 195 -318 229 -318 8 0 11 108 12 378 0 207 3 389 5 405
3 15 1 27 -3 27 -5 0 -12 -71 -16 -157z" />
        <path d="M1074 1815 c3 -9 13 -41 22 -73 9 -31 20 -61 25 -66 5 -6 9 -18 9
-27 0 -21 130 -278 160 -316 12 -15 45 -53 73 -83 l52 -55 3 -100 c2 -56 0
-116 -5 -134 -8 -31 -10 -33 -25 -17 -9 9 -20 16 -24 16 -4 0 -22 11 -40 25
-18 14 -35 25 -39 25 -10 0 -255 158 -315 203 -30 23 -59 42 -63 42 -5 0 -15
11 -22 25 -7 14 -16 23 -18 20 -3 -3 -34 20 -69 50 -35 31 -86 73 -115 93 -28
21 -53 43 -55 49 -2 6 -11 12 -19 13 -7 2 -45 23 -84 49 -107 70 -100 55 11
-26 101 -73 138 -102 304 -244 123 -104 204 -162 370 -264 74 -46 154 -96 178
-112 24 -17 45 -28 47 -26 2 2 7 74 11 159 l7 156 -37 28 c-88 67 -210 269
-296 493 -23 62 -45 112 -47 112 -3 0 -2 -7 1 -15z" />
        <path d="M1522 1795 l-31 -36 -3 -254 c-2 -140 -1 -255 2 -254 6 0 105 136
183 249 64 94 49 77 -63 -73 -41 -55 -81 -102 -87 -105 -10 -3 -13 45 -13 215
0 218 0 219 25 253 14 19 25 35 25 37 0 8 -9 0 -38 -32z" />
        <path d="M410 1587 c0 -3 44 -40 98 -83 143 -115 150 -122 132 -135 -12 -8 -9
-9 10 -5 21 4 38 -7 98 -62 40 -37 95 -87 123 -111 54 -48 53 -59 -11 -62 -19
-1 -26 -3 -15 -6 11 -2 46 0 78 4 l58 8 -179 151 c-193 164 -392 316 -392 301z" />
        <path d="M1699 1498 c-13 -18 -34 -49 -48 -68 -21 -29 -22 -32 -4 -17 19 17
87 117 78 117 -2 0 -14 -15 -26 -32z" />
        <path d="M2395 1449 c-38 -22 -78 -43 -87 -46 -10 -3 -18 -9 -18 -13 0 -10
-210 -133 -227 -133 -7 0 -13 -4 -13 -8 0 -3 -33 -26 -72 -50 -40 -24 -75 -46
-78 -49 -3 -4 -34 -24 -70 -45 -36 -21 -108 -66 -160 -99 -115 -74 -148 -91
-156 -83 -8 8 -7 232 1 278 7 41 19 64 63 119 20 25 40 52 46 60 23 34 -23
-17 -78 -85 -40 -51 -57 -81 -61 -110 -8 -68 -10 -315 -2 -315 18 0 152 75
270 152 70 46 191 123 270 173 206 129 447 286 447 291 0 6 -1 6 -75 -37z" />
        <path d="M2264 1319 c-126 -83 -264 -174 -306 -201 -43 -28 -78 -53 -78 -57 0
-14 71 2 83 18 6 9 35 32 63 51 29 19 104 72 169 118 64 45 118 82 121 82 3 0
40 26 82 58 98 73 108 81 101 82 -4 0 -110 -68 -235 -151z" />
        <path d="M1437 693 c-4 -71 -7 -171 -7 -224 0 -165 -28 -272 -100 -386 -18
-27 -12 -33 38 -40 35 -5 40 -3 45 18 3 13 15 58 26 99 18 61 23 119 31 314 5
132 7 253 4 270 -19 115 -30 100 -37 -51z" />
    </g>
</svg>