<?xml version="1.0" standalone="no"?>
<!DOCTYPE svg PUBLIC "-//W3C//DTD SVG 1.1//EN" "http://www.w3.org/Graphics/SVG/1.1/DTD/svg11.dtd"><svg t="1701409295257"
    class="icon" viewBox="0 0 1024 1024" version="1.1" xmlns="http://www.w3.org/2000/svg" p-id="10100"
    xmlns:xlink="http://www.w3.org/1999/xlink" width="200" height="200">
    <path
        d="M220.742316 86.988416a47.894798 47.894798 0 0 1 0-70.972314A61.403588 61.403588 0 0 1 300.157623 13.252941l3.172518 2.763161 479.459681 454.795906 2.353804 1.842108c1.637429 1.228072 3.172519 2.558483 4.605269 3.940064 20.058505 18.932773 20.979559 48.099477 2.91667 68.055643l-2.8655 2.91667-484.678986 459.810532a61.250079 61.250079 0 0 1-82.587825 0 47.741289 47.741289 0 0 1-2.865501-68.055643l2.865501-2.96784 446.76227-423.787094L220.742316 86.988416z"
        fill="#BBBBBB" p-id="10101"></path>
</svg>