<?xml version="1.0" standalone="no"?>
<!DOCTYPE svg PUBLIC "-//W3C//DTD SVG 1.1//EN" "http://www.w3.org/Graphics/SVG/1.1/DTD/svg11.dtd"><svg t="1701411142822"
    class="icon" viewBox="0 0 1024 1024" version="1.1" xmlns="http://www.w3.org/2000/svg" p-id="10609"
    xmlns:xlink="http://www.w3.org/1999/xlink" width="200" height="200">
    <path d="M426.666667 85.333333m-51.2 0a51.2 51.2 0 1 0 102.4 0 51.2 51.2 0 1 0-102.4 0Z" fill="#BBBBBB"
        p-id="10610"></path>
    <path d="M904.533333 221.866667m-51.2 0a51.2 51.2 0 1 0 102.4 0 51.2 51.2 0 1 0-102.4 0Z" fill="#BBBBBB"
        p-id="10611"></path>
    <path d="M904.533333 716.8m-51.2 0a51.2 51.2 0 1 0 102.4 0 51.2 51.2 0 1 0-102.4 0Z" fill="#BBBBBB" p-id="10612">
    </path>
    <path d="M580.266667 938.666667m-51.2 0a51.2 51.2 0 1 0 102.4 0 51.2 51.2 0 1 0-102.4 0Z" fill="#BBBBBB"
        p-id="10613"></path>
    <path d="M102.4 802.133333m-51.2 0a51.2 51.2 0 1 0 102.4 0 51.2 51.2 0 1 0-102.4 0Z" fill="#BBBBBB" p-id="10614">
    </path>
    <path d="M102.4 307.2m-51.2 0a51.2 51.2 0 1 0 102.4 0 51.2 51.2 0 1 0-102.4 0Z" fill="#BBBBBB" p-id="10615"></path>
    <path d="M580.266667 443.733333m-51.2 0a51.2 51.2 0 1 0 102.4 0 51.2 51.2 0 1 0-102.4 0Z" fill="#BBBBBB"
        p-id="10616"></path>
    <path d="M426.666667 563.2m-51.2 0a51.2 51.2 0 1 0 102.4 0 51.2 51.2 0 1 0-102.4 0Z" fill="#BBBBBB" p-id="10617">
    </path>
</svg>